<svg width="326" height="186" viewBox="0 0 326 186" fill="none" xmlns="http://www.w3.org/2000/svg">
<path d="M60.398 143.89C60.398 156.115 61.157 168.636 60.3433 180.841C60.0135 185.788 47.0554 183.246 43.6714 183.246" stroke="black" stroke-width="3" stroke-linecap="round"/>
<path d="M85.98 144.874C88.1155 149.145 86.9639 155.483 86.9639 160.179C86.9639 164.712 88.045 169.083 88.9317 173.516C90.5656 181.686 93.0602 183.246 101.723 183.246" stroke="black" stroke-width="3" stroke-linecap="round"/>
<path d="M118.449 116.34C121.094 110.235 126.984 105.508 131.24 100.597" stroke="black" stroke-width="3" stroke-linecap="round"/>
<path d="M30.715 110.184C24.129 108.189 18.1673 105.616 12.0708 102.5C8.44667 100.648 5.2876 100.406 2.33154 97.5518" stroke="black" stroke-width="3" stroke-linecap="round"/>
<path d="M35.542 74.6258C35.0331 88.6326 32.0802 102.564 32.0802 116.547C32.0802 120.94 31.981 125.343 32.0802 129.733C32.1587 133.202 33.9656 135.014 36.3834 137.153C39.1602 139.61 42.5854 140.085 46.1437 140.604C51.02 141.314 55.7226 141.407 60.7359 141.407C67.6863 141.407 74.2538 141.904 81.1459 142.234C90.8057 142.697 100.436 142.258 109.97 142.258C115.297 142.258 114.667 136.223 115.066 132.475C115.419 129.165 115.083 124.917 116.701 121.935C117.347 120.744 116.873 118.562 116.893 117.256C116.933 114.746 117.493 112.258 117.735 109.765C118.707 99.729 117.759 89.0904 117.759 78.9739C117.759 74.0312 118.727 71.3737 114.537 67.8437C112.978 66.5297 112.004 65.6158 110.186 64.6535C107.856 63.4203 103.549 65.2679 101.075 65.2679C95.9092 65.2679 91.2755 64.7785 86.1222 64.4408C81.7092 64.1516 77.2863 65.5412 72.7559 65.2443C68.7348 64.9808 64.6658 64.4172 60.6398 64.4172C56.9188 64.4172 53.0937 64.6464 49.3891 64.3227C45.5181 63.9844 41.9165 63.4078 38.5951 65.6933C36.3323 67.2503 36.4623 67.8981 35.9267 70.1359C35.695 71.1035 34.6786 71.0612 35.3497 72.2863C36.3193 74.0565 36.4075 75.1009 36.4075 77.178" stroke="black" stroke-width="3" stroke-linecap="round"/>
<path d="M171.854 53L168.419 42.5H170.939L173.924 51.8H172.664L175.784 42.5H178.034L181.034 51.8H179.819L182.879 42.5H185.204L181.769 53H179.159L176.504 44.84H177.194L174.464 53H171.854ZM184.829 53L189.509 42.5H191.909L196.604 53H194.054L190.214 43.73H191.174L187.319 53H184.829ZM187.169 50.75L187.814 48.905H193.214L193.874 50.75H187.169ZM197.693 53V42.5H200.123V53H197.693ZM204.79 53V44.48H201.43V42.5H210.58V44.48H207.22V53H204.79ZM211.888 53V42.5H214.318V53H211.888ZM216.809 53V42.5H218.819L225.014 50.06H224.039V42.5H226.439V53H224.444L218.234 45.44H219.209V53H216.809ZM233.994 53.18C233.164 53.18 232.399 53.05 231.699 52.79C231.009 52.52 230.404 52.14 229.884 51.65C229.374 51.16 228.974 50.585 228.684 49.925C228.404 49.265 228.264 48.54 228.264 47.75C228.264 46.96 228.404 46.235 228.684 45.575C228.974 44.915 229.379 44.34 229.899 43.85C230.419 43.36 231.029 42.985 231.729 42.725C232.429 42.455 233.199 42.32 234.039 42.32C234.969 42.32 235.804 42.475 236.544 42.785C237.294 43.095 237.924 43.545 238.434 44.135L236.874 45.575C236.494 45.175 236.079 44.88 235.629 44.69C235.179 44.49 234.689 44.39 234.159 44.39C233.649 44.39 233.184 44.47 232.764 44.63C232.344 44.79 231.979 45.02 231.669 45.32C231.369 45.62 231.134 45.975 230.964 46.385C230.804 46.795 230.724 47.25 230.724 47.75C230.724 48.24 230.804 48.69 230.964 49.1C231.134 49.51 231.369 49.87 231.669 50.18C231.979 50.48 232.339 50.71 232.749 50.87C233.169 51.03 233.629 51.11 234.129 51.11C234.609 51.11 235.074 51.035 235.524 50.885C235.984 50.725 236.429 50.46 236.859 50.09L238.239 51.845C237.669 52.275 237.004 52.605 236.244 52.835C235.494 53.065 234.744 53.18 233.994 53.18ZM236.019 51.53V47.585H238.239V51.845L236.019 51.53ZM246.994 47.225H252.034V49.175H246.994V47.225ZM247.174 53H244.744V42.5H252.679V44.45H247.174V53ZM259.322 53.18C258.492 53.18 257.722 53.045 257.012 52.775C256.312 52.505 255.702 52.125 255.182 51.635C254.672 51.145 254.272 50.57 253.982 49.91C253.702 49.25 253.562 48.53 253.562 47.75C253.562 46.97 253.702 46.25 253.982 45.59C254.272 44.93 254.677 44.355 255.197 43.865C255.717 43.375 256.327 42.995 257.027 42.725C257.727 42.455 258.487 42.32 259.307 42.32C260.137 42.32 260.897 42.455 261.587 42.725C262.287 42.995 262.892 43.375 263.402 43.865C263.922 44.355 264.327 44.93 264.617 45.59C264.907 46.24 265.052 46.96 265.052 47.75C265.052 48.53 264.907 49.255 264.617 49.925C264.327 50.585 263.922 51.16 263.402 51.65C262.892 52.13 262.287 52.505 261.587 52.775C260.897 53.045 260.142 53.18 259.322 53.18ZM259.307 51.11C259.777 51.11 260.207 51.03 260.597 50.87C260.997 50.71 261.347 50.48 261.647 50.18C261.947 49.88 262.177 49.525 262.337 49.115C262.507 48.705 262.592 48.25 262.592 47.75C262.592 47.25 262.507 46.795 262.337 46.385C262.177 45.975 261.947 45.62 261.647 45.32C261.357 45.02 261.012 44.79 260.612 44.63C260.212 44.47 259.777 44.39 259.307 44.39C258.837 44.39 258.402 44.47 258.002 44.63C257.612 44.79 257.267 45.02 256.967 45.32C256.667 45.62 256.432 45.975 256.262 46.385C256.102 46.795 256.022 47.25 256.022 47.75C256.022 48.24 256.102 48.695 256.262 49.115C256.432 49.525 256.662 49.88 256.952 50.18C257.252 50.48 257.602 50.71 258.002 50.87C258.402 51.03 258.837 51.11 259.307 51.11ZM266.878 53V42.5H271.423C272.363 42.5 273.173 42.655 273.853 42.965C274.533 43.265 275.058 43.7 275.428 44.27C275.798 44.84 275.983 45.52 275.983 46.31C275.983 47.09 275.798 47.765 275.428 48.335C275.058 48.895 274.533 49.325 273.853 49.625C273.173 49.925 272.363 50.075 271.423 50.075H268.228L269.308 49.01V53H266.878ZM273.553 53L270.928 49.19H273.523L276.178 53H273.553ZM269.308 49.28L268.228 48.14H271.288C272.038 48.14 272.598 47.98 272.968 47.66C273.338 47.33 273.523 46.88 273.523 46.31C273.523 45.73 273.338 45.28 272.968 44.96C272.598 44.64 272.038 44.48 271.288 44.48H268.228L269.308 43.325V49.28ZM177.525 71V66.71L178.08 68.18L173.46 60.5H176.04L179.58 66.395H178.095L181.65 60.5H184.035L179.415 68.18L179.955 66.71V71H177.525ZM189.698 71.18C188.868 71.18 188.098 71.045 187.388 70.775C186.688 70.505 186.078 70.125 185.558 69.635C185.048 69.145 184.648 68.57 184.358 67.91C184.078 67.25 183.938 66.53 183.938 65.75C183.938 64.97 184.078 64.25 184.358 63.59C184.648 62.93 185.053 62.355 185.573 61.865C186.093 61.375 186.703 60.995 187.403 60.725C188.103 60.455 188.863 60.32 189.683 60.32C190.513 60.32 191.273 60.455 191.963 60.725C192.663 60.995 193.268 61.375 193.778 61.865C194.298 62.355 194.703 62.93 194.993 63.59C195.283 64.24 195.428 64.96 195.428 65.75C195.428 66.53 195.283 67.255 194.993 67.925C194.703 68.585 194.298 69.16 193.778 69.65C193.268 70.13 192.663 70.505 191.963 70.775C191.273 71.045 190.518 71.18 189.698 71.18ZM189.683 69.11C190.153 69.11 190.583 69.03 190.973 68.87C191.373 68.71 191.723 68.48 192.023 68.18C192.323 67.88 192.553 67.525 192.713 67.115C192.883 66.705 192.968 66.25 192.968 65.75C192.968 65.25 192.883 64.795 192.713 64.385C192.553 63.975 192.323 63.62 192.023 63.32C191.733 63.02 191.388 62.79 190.988 62.63C190.588 62.47 190.153 62.39 189.683 62.39C189.213 62.39 188.778 62.47 188.378 62.63C187.988 62.79 187.643 63.02 187.343 63.32C187.043 63.62 186.808 63.975 186.638 64.385C186.478 64.795 186.398 65.25 186.398 65.75C186.398 66.24 186.478 66.695 186.638 67.115C186.808 67.525 187.038 67.88 187.328 68.18C187.628 68.48 187.978 68.71 188.378 68.87C188.778 69.03 189.213 69.11 189.683 69.11ZM201.919 71.18C200.429 71.18 199.264 70.765 198.424 69.935C197.584 69.105 197.164 67.92 197.164 66.38V60.5H199.594V66.29C199.594 67.29 199.799 68.01 200.209 68.45C200.619 68.89 201.194 69.11 201.934 69.11C202.674 69.11 203.249 68.89 203.659 68.45C204.069 68.01 204.274 67.29 204.274 66.29V60.5H206.674V66.38C206.674 67.92 206.254 69.105 205.414 69.935C204.574 70.765 203.409 71.18 201.919 71.18ZM209.075 71V60.5H213.62C214.56 60.5 215.37 60.655 216.05 60.965C216.73 61.265 217.255 61.7 217.625 62.27C217.995 62.84 218.18 63.52 218.18 64.31C218.18 65.09 217.995 65.765 217.625 66.335C217.255 66.895 216.73 67.325 216.05 67.625C215.37 67.925 214.56 68.075 213.62 68.075H210.425L211.505 67.01V71H209.075ZM215.75 71L213.125 67.19H215.72L218.375 71H215.75ZM211.505 67.28L210.425 66.14H213.485C214.235 66.14 214.795 65.98 215.165 65.66C215.535 65.33 215.72 64.88 215.72 64.31C215.72 63.73 215.535 63.28 215.165 62.96C214.795 62.64 214.235 62.48 213.485 62.48H210.425L211.505 61.325V67.28ZM224.353 71V60.5H226.783V71H224.353ZM229.275 71V60.5H231.285L235.755 67.91H234.69L239.085 60.5H241.08L241.11 71H238.83L238.815 63.995H239.235L235.725 69.89H234.63L231.045 63.995H231.555V71H229.275ZM242.221 71L246.901 60.5H249.301L253.996 71H251.446L247.606 61.73H248.566L244.711 71H242.221ZM244.561 68.75L245.206 66.905H250.606L251.266 68.75H244.561ZM260.009 71.18C259.179 71.18 258.414 71.05 257.714 70.79C257.024 70.52 256.419 70.14 255.899 69.65C255.389 69.16 254.989 68.585 254.699 67.925C254.419 67.265 254.279 66.54 254.279 65.75C254.279 64.96 254.419 64.235 254.699 63.575C254.989 62.915 255.394 62.34 255.914 61.85C256.434 61.36 257.044 60.985 257.744 60.725C258.444 60.455 259.214 60.32 260.054 60.32C260.984 60.32 261.819 60.475 262.559 60.785C263.309 61.095 263.939 61.545 264.449 62.135L262.889 63.575C262.509 63.175 262.094 62.88 261.644 62.69C261.194 62.49 260.704 62.39 260.174 62.39C259.664 62.39 259.199 62.47 258.779 62.63C258.359 62.79 257.994 63.02 257.684 63.32C257.384 63.62 257.149 63.975 256.979 64.385C256.819 64.795 256.739 65.25 256.739 65.75C256.739 66.24 256.819 66.69 256.979 67.1C257.149 67.51 257.384 67.87 257.684 68.18C257.994 68.48 258.354 68.71 258.764 68.87C259.184 69.03 259.644 69.11 260.144 69.11C260.624 69.11 261.089 69.035 261.539 68.885C261.999 68.725 262.444 68.46 262.874 68.09L264.254 69.845C263.684 70.275 263.019 70.605 262.259 70.835C261.509 71.065 260.759 71.18 260.009 71.18ZM262.034 69.53V65.585H264.254V69.845L262.034 69.53ZM268.747 64.73H273.802V66.62H268.747V64.73ZM268.927 69.05H274.642V71H266.512V60.5H274.447V62.45H268.927V69.05Z" fill="black"/>
<path d="M136.635 29.7399C136.635 35.1902 136.635 27.3849 136.635 26.0269C136.635 18.4711 141.011 15.3961 149.432 13.4027C166.265 9.41807 175.593 7.74944 190.877 14.8879C192.417 15.6071 195.473 19.6362 197.085 18.766C202.805 15.6769 203.411 8.40229 208.831 4.82157C216.229 -0.0668421 235.337 2.10545 243.018 5.97673C249.964 9.4775 250.365 22.3139 258.775 22.3139C265.389 22.3139 267.184 17.3103 272.431 15.218C278.372 12.8491 289.54 14.8879 296.019 14.8879C306.217 14.8879 316.936 24.9027 320.37 32.9579C324.142 41.8026 323.999 53.5539 323.999 62.9094C323.999 67.8468 320.749 70.9967 320.561 76.4413C319.712 101.138 300.992 104 276.824 104C258.054 104 245.988 89.148 227.357 89.148C210.022 89.148 198.167 97.3568 182.856 101.855C175.855 103.911 162.415 102.139 157.549 97.2341C153.347 92.9982 156.264 83.9642 151.342 80.3193C149.07 78.6368 147.397 78.8849 144.466 78.7516C137.272 78.4244 132.115 74.5431 126.322 71.3256C112.171 63.4655 117.522 47.6511 131.479 41.6216" stroke="#B6B4FC" stroke-width="3" stroke-linecap="round"/>
</svg>
